<mxfile host="app.diagrams.net" modified="2021-11-27T19:06:01.290Z" agent="5.0 (Windows NT 6.1; Win64; x64) AppleWebKit/537.36 (KHTML, like Gecko) Chrome/96.0.4664.45 Safari/537.36" etag="uPtHQPLFPiv0KAXunPtY" version="15.8.6" type="github">
  <diagram id="hc-FqBqLWBr0-qPp5Xy4" name="Page-1">
    <mxGraphModel dx="1547" dy="1189" grid="1" gridSize="10" guides="1" tooltips="1" connect="1" arrows="1" fold="1" page="1" pageScale="1" pageWidth="827" pageHeight="1169" math="0" shadow="0">
      <root>
        <mxCell id="0" />
        <mxCell id="1" parent="0" />
        <mxCell id="15KPPQUU8AicYyvamZOJ-2" value="" style="edgeStyle=orthogonalEdgeStyle;rounded=0;orthogonalLoop=1;jettySize=auto;html=1;fontSize=18;" parent="1" source="15KPPQUU8AicYyvamZOJ-1" target="15KPPQUU8AicYyvamZOJ-3" edge="1">
          <mxGeometry relative="1" as="geometry">
            <mxPoint x="180" y="90" as="targetPoint" />
          </mxGeometry>
        </mxCell>
        <mxCell id="15KPPQUU8AicYyvamZOJ-1" value="&lt;font style=&quot;font-size: 18px&quot;&gt;начало&lt;/font&gt;" style="rounded=1;whiteSpace=wrap;html=1;" parent="1" vertex="1">
          <mxGeometry x="1247.5" y="10" width="100" height="40" as="geometry" />
        </mxCell>
        <mxCell id="g-CExIdlB7c3mvn5GUSl-2" value="" style="edgeStyle=orthogonalEdgeStyle;rounded=0;orthogonalLoop=1;jettySize=auto;html=1;entryX=0.5;entryY=0;entryDx=0;entryDy=0;" edge="1" parent="1" source="15KPPQUU8AicYyvamZOJ-3" target="g-CExIdlB7c3mvn5GUSl-1">
          <mxGeometry relative="1" as="geometry">
            <mxPoint x="1297.5" y="200" as="targetPoint" />
          </mxGeometry>
        </mxCell>
        <mxCell id="15KPPQUU8AicYyvamZOJ-3" value="m[4], b[4], i, n=4" style="rounded=0;whiteSpace=wrap;html=1;fontSize=18;" parent="1" vertex="1">
          <mxGeometry x="1188.75" y="80" width="217.5" height="40" as="geometry" />
        </mxCell>
        <mxCell id="15KPPQUU8AicYyvamZOJ-4" value="" style="edgeStyle=orthogonalEdgeStyle;rounded=0;orthogonalLoop=1;jettySize=auto;html=1;" parent="1" source="15KPPQUU8AicYyvamZOJ-5" target="15KPPQUU8AicYyvamZOJ-7" edge="1">
          <mxGeometry relative="1" as="geometry" />
        </mxCell>
        <mxCell id="15KPPQUU8AicYyvamZOJ-5" value="i=0" style="whiteSpace=wrap;html=1;rounded=0;" parent="1" vertex="1">
          <mxGeometry x="1260" y="535" width="80" height="20" as="geometry" />
        </mxCell>
        <mxCell id="15KPPQUU8AicYyvamZOJ-20" value="" style="edgeStyle=orthogonalEdgeStyle;rounded=0;orthogonalLoop=1;jettySize=auto;html=1;fontSize=11;fontColor=#000000;" parent="1" source="15KPPQUU8AicYyvamZOJ-7" target="15KPPQUU8AicYyvamZOJ-19" edge="1">
          <mxGeometry relative="1" as="geometry" />
        </mxCell>
        <mxCell id="g-CExIdlB7c3mvn5GUSl-26" value="" style="edgeStyle=orthogonalEdgeStyle;rounded=0;orthogonalLoop=1;jettySize=auto;html=1;entryX=0.5;entryY=0;entryDx=0;entryDy=0;" edge="1" parent="1" source="15KPPQUU8AicYyvamZOJ-7" target="15KPPQUU8AicYyvamZOJ-31">
          <mxGeometry relative="1" as="geometry">
            <mxPoint x="1430" y="890" as="targetPoint" />
            <Array as="points">
              <mxPoint x="1450" y="605" />
              <mxPoint x="1450" y="870" />
              <mxPoint x="1300" y="870" />
            </Array>
          </mxGeometry>
        </mxCell>
        <mxCell id="15KPPQUU8AicYyvamZOJ-7" value="i&amp;lt;4" style="rhombus;whiteSpace=wrap;html=1;rounded=0;" parent="1" vertex="1">
          <mxGeometry x="1240" y="585" width="120" height="40" as="geometry" />
        </mxCell>
        <mxCell id="15KPPQUU8AicYyvamZOJ-8" value="да" style="text;html=1;strokeColor=none;fillColor=none;align=center;verticalAlign=middle;whiteSpace=wrap;rounded=0;" parent="1" vertex="1">
          <mxGeometry x="1215" y="615" width="60" height="15" as="geometry" />
        </mxCell>
        <mxCell id="15KPPQUU8AicYyvamZOJ-12" value="нет" style="text;html=1;align=center;verticalAlign=middle;resizable=0;points=[];autosize=1;strokeColor=none;fillColor=none;" parent="1" vertex="1">
          <mxGeometry x="1353.75" y="575" width="40" height="20" as="geometry" />
        </mxCell>
        <mxCell id="g-CExIdlB7c3mvn5GUSl-25" value="" style="edgeStyle=orthogonalEdgeStyle;rounded=0;orthogonalLoop=1;jettySize=auto;html=1;" edge="1" parent="1" source="15KPPQUU8AicYyvamZOJ-13" target="15KPPQUU8AicYyvamZOJ-7">
          <mxGeometry relative="1" as="geometry">
            <mxPoint x="1300" y="570" as="targetPoint" />
            <Array as="points">
              <mxPoint x="1300" y="850" />
              <mxPoint x="1170" y="850" />
              <mxPoint x="1170" y="570" />
              <mxPoint x="1300" y="570" />
            </Array>
          </mxGeometry>
        </mxCell>
        <mxCell id="15KPPQUU8AicYyvamZOJ-13" value="i=i+1" style="rounded=0;whiteSpace=wrap;html=1;" parent="1" vertex="1">
          <mxGeometry x="1265" y="810" width="70" height="20" as="geometry" />
        </mxCell>
        <mxCell id="15KPPQUU8AicYyvamZOJ-21" value="" style="edgeStyle=orthogonalEdgeStyle;rounded=0;orthogonalLoop=1;jettySize=auto;html=1;fontSize=11;fontColor=#000000;" parent="1" source="15KPPQUU8AicYyvamZOJ-19" edge="1">
          <mxGeometry relative="1" as="geometry">
            <mxPoint x="1200" y="745" as="targetPoint" />
            <Array as="points">
              <mxPoint x="1200" y="693" />
            </Array>
          </mxGeometry>
        </mxCell>
        <mxCell id="15KPPQUU8AicYyvamZOJ-24" value="" style="edgeStyle=orthogonalEdgeStyle;rounded=0;orthogonalLoop=1;jettySize=auto;html=1;fontSize=11;fontColor=#000000;entryX=0.962;entryY=0;entryDx=0;entryDy=0;entryPerimeter=0;" parent="1" source="15KPPQUU8AicYyvamZOJ-19" target="15KPPQUU8AicYyvamZOJ-23" edge="1">
          <mxGeometry relative="1" as="geometry">
            <mxPoint x="1440" y="725" as="targetPoint" />
            <Array as="points">
              <mxPoint x="1400" y="693" />
            </Array>
          </mxGeometry>
        </mxCell>
        <mxCell id="15KPPQUU8AicYyvamZOJ-19" value="&lt;font style=&quot;font-size: 11px&quot;&gt;(b[i]&amp;gt;0 * b[i+1]&amp;gt;0)&amp;nbsp;&amp;nbsp;&lt;/font&gt;" style="rhombus;whiteSpace=wrap;html=1;labelBackgroundColor=none;fontSize=12;fontColor=#000000;fillColor=none;" parent="1" vertex="1">
          <mxGeometry x="1215" y="655" width="170" height="75" as="geometry" />
        </mxCell>
        <mxCell id="g-CExIdlB7c3mvn5GUSl-23" style="edgeStyle=orthogonalEdgeStyle;rounded=0;orthogonalLoop=1;jettySize=auto;html=1;entryX=0.5;entryY=0;entryDx=0;entryDy=0;" edge="1" parent="1" source="15KPPQUU8AicYyvamZOJ-22" target="15KPPQUU8AicYyvamZOJ-13">
          <mxGeometry relative="1" as="geometry">
            <mxPoint x="1280" y="770" as="targetPoint" />
          </mxGeometry>
        </mxCell>
        <mxCell id="15KPPQUU8AicYyvamZOJ-22" value="m[i] , &quot;,&quot; , &quot;999&quot; , &quot;,&quot;" style="shape=document;whiteSpace=wrap;html=1;boundedLbl=1;labelBackgroundColor=none;fontSize=11;fontColor=#000000;fillColor=none;" parent="1" vertex="1">
          <mxGeometry x="1195" y="745" width="65" height="50" as="geometry" />
        </mxCell>
        <mxCell id="g-CExIdlB7c3mvn5GUSl-24" style="edgeStyle=orthogonalEdgeStyle;rounded=0;orthogonalLoop=1;jettySize=auto;html=1;" edge="1" parent="1" source="15KPPQUU8AicYyvamZOJ-23">
          <mxGeometry relative="1" as="geometry">
            <mxPoint x="1300" y="810" as="targetPoint" />
          </mxGeometry>
        </mxCell>
        <mxCell id="15KPPQUU8AicYyvamZOJ-23" value="&lt;span&gt;m[i] , &quot;,&quot;&lt;/span&gt;" style="shape=document;whiteSpace=wrap;html=1;boundedLbl=1;labelBackgroundColor=none;fontSize=11;fontColor=#000000;fillColor=none;" parent="1" vertex="1">
          <mxGeometry x="1337.5" y="745" width="65" height="50" as="geometry" />
        </mxCell>
        <mxCell id="15KPPQUU8AicYyvamZOJ-29" value="да" style="text;html=1;strokeColor=none;fillColor=none;align=center;verticalAlign=middle;whiteSpace=wrap;rounded=0;" parent="1" vertex="1">
          <mxGeometry x="1160" y="677.5" width="60" height="15" as="geometry" />
        </mxCell>
        <mxCell id="15KPPQUU8AicYyvamZOJ-30" value="нет" style="text;html=1;align=center;verticalAlign=middle;resizable=0;points=[];autosize=1;strokeColor=none;fillColor=none;" parent="1" vertex="1">
          <mxGeometry x="1385" y="675" width="40" height="20" as="geometry" />
        </mxCell>
        <mxCell id="15KPPQUU8AicYyvamZOJ-31" value="конец" style="rounded=1;whiteSpace=wrap;html=1;labelBackgroundColor=none;fontSize=11;fontColor=#000000;fillColor=none;" parent="1" vertex="1">
          <mxGeometry x="1246.25" y="890" width="107.5" height="30" as="geometry" />
        </mxCell>
        <mxCell id="g-CExIdlB7c3mvn5GUSl-4" value="" style="edgeStyle=orthogonalEdgeStyle;rounded=0;orthogonalLoop=1;jettySize=auto;html=1;" edge="1" parent="1" source="g-CExIdlB7c3mvn5GUSl-1" target="g-CExIdlB7c3mvn5GUSl-3">
          <mxGeometry relative="1" as="geometry" />
        </mxCell>
        <mxCell id="g-CExIdlB7c3mvn5GUSl-1" value="i=0" style="whiteSpace=wrap;html=1;rounded=0;" vertex="1" parent="1">
          <mxGeometry x="1257.5" y="140" width="80" height="20" as="geometry" />
        </mxCell>
        <mxCell id="g-CExIdlB7c3mvn5GUSl-6" value="" style="edgeStyle=orthogonalEdgeStyle;rounded=0;orthogonalLoop=1;jettySize=auto;html=1;" edge="1" parent="1" source="g-CExIdlB7c3mvn5GUSl-3" target="g-CExIdlB7c3mvn5GUSl-5">
          <mxGeometry relative="1" as="geometry" />
        </mxCell>
        <mxCell id="g-CExIdlB7c3mvn5GUSl-18" value="" style="edgeStyle=orthogonalEdgeStyle;rounded=0;orthogonalLoop=1;jettySize=auto;html=1;" edge="1" parent="1" source="g-CExIdlB7c3mvn5GUSl-3">
          <mxGeometry relative="1" as="geometry">
            <mxPoint x="1298" y="460" as="targetPoint" />
            <Array as="points">
              <mxPoint x="1430" y="210" />
              <mxPoint x="1430" y="440" />
              <mxPoint x="1298" y="440" />
            </Array>
          </mxGeometry>
        </mxCell>
        <mxCell id="g-CExIdlB7c3mvn5GUSl-3" value="i&amp;lt;n" style="rhombus;whiteSpace=wrap;html=1;rounded=0;" vertex="1" parent="1">
          <mxGeometry x="1237.5" y="190" width="120" height="40" as="geometry" />
        </mxCell>
        <mxCell id="g-CExIdlB7c3mvn5GUSl-11" value="" style="edgeStyle=orthogonalEdgeStyle;rounded=0;orthogonalLoop=1;jettySize=auto;html=1;exitX=0.501;exitY=0.885;exitDx=0;exitDy=0;exitPerimeter=0;" edge="1" parent="1" source="g-CExIdlB7c3mvn5GUSl-5">
          <mxGeometry relative="1" as="geometry">
            <mxPoint x="1298" y="320" as="targetPoint" />
          </mxGeometry>
        </mxCell>
        <mxCell id="g-CExIdlB7c3mvn5GUSl-5" value="&quot;enter element [&quot;, i+1, &quot;]&quot;" style="shape=document;whiteSpace=wrap;html=1;boundedLbl=1;labelBackgroundColor=none;fontSize=11;fontColor=#000000;fillColor=none;" vertex="1" parent="1">
          <mxGeometry x="1235" y="250" width="125" height="50" as="geometry" />
        </mxCell>
        <mxCell id="g-CExIdlB7c3mvn5GUSl-9" value="" style="edgeStyle=orthogonalEdgeStyle;rounded=0;orthogonalLoop=1;jettySize=auto;html=1;" edge="1" parent="1" source="g-CExIdlB7c3mvn5GUSl-7">
          <mxGeometry relative="1" as="geometry">
            <mxPoint x="1298" y="190" as="targetPoint" />
            <Array as="points">
              <mxPoint x="1210" y="420" />
              <mxPoint x="1210" y="170" />
              <mxPoint x="1298" y="170" />
            </Array>
          </mxGeometry>
        </mxCell>
        <mxCell id="g-CExIdlB7c3mvn5GUSl-7" value="i=i+1" style="rounded=0;whiteSpace=wrap;html=1;" vertex="1" parent="1">
          <mxGeometry x="1262.5" y="410" width="70" height="20" as="geometry" />
        </mxCell>
        <mxCell id="g-CExIdlB7c3mvn5GUSl-13" value="" style="edgeStyle=orthogonalEdgeStyle;rounded=0;orthogonalLoop=1;jettySize=auto;html=1;" edge="1" parent="1" source="g-CExIdlB7c3mvn5GUSl-10" target="g-CExIdlB7c3mvn5GUSl-12">
          <mxGeometry relative="1" as="geometry" />
        </mxCell>
        <mxCell id="g-CExIdlB7c3mvn5GUSl-10" value="m[i]" style="rounded=0;whiteSpace=wrap;html=1;" vertex="1" parent="1">
          <mxGeometry x="1262.5" y="320" width="70" height="20" as="geometry" />
        </mxCell>
        <mxCell id="g-CExIdlB7c3mvn5GUSl-15" value="" style="edgeStyle=orthogonalEdgeStyle;rounded=0;orthogonalLoop=1;jettySize=auto;html=1;entryX=0.5;entryY=0;entryDx=0;entryDy=0;" edge="1" parent="1" source="g-CExIdlB7c3mvn5GUSl-12" target="g-CExIdlB7c3mvn5GUSl-7">
          <mxGeometry relative="1" as="geometry" />
        </mxCell>
        <mxCell id="g-CExIdlB7c3mvn5GUSl-12" value="b[i] = m[i]" style="rounded=0;whiteSpace=wrap;html=1;" vertex="1" parent="1">
          <mxGeometry x="1262.5" y="370" width="70" height="20" as="geometry" />
        </mxCell>
        <mxCell id="g-CExIdlB7c3mvn5GUSl-16" value="да" style="text;html=1;strokeColor=none;fillColor=none;align=center;verticalAlign=middle;whiteSpace=wrap;rounded=0;" vertex="1" parent="1">
          <mxGeometry x="1243.75" y="230" width="60" height="15" as="geometry" />
        </mxCell>
        <mxCell id="g-CExIdlB7c3mvn5GUSl-17" value="нет" style="text;html=1;align=center;verticalAlign=middle;resizable=0;points=[];autosize=1;strokeColor=none;fillColor=none;" vertex="1" parent="1">
          <mxGeometry x="1360" y="170" width="40" height="20" as="geometry" />
        </mxCell>
        <mxCell id="g-CExIdlB7c3mvn5GUSl-28" value="" style="edgeStyle=orthogonalEdgeStyle;rounded=0;orthogonalLoop=1;jettySize=auto;html=1;entryX=0.478;entryY=0.048;entryDx=0;entryDy=0;entryPerimeter=0;" edge="1" parent="1" source="g-CExIdlB7c3mvn5GUSl-27" target="15KPPQUU8AicYyvamZOJ-5">
          <mxGeometry relative="1" as="geometry">
            <mxPoint x="1298" y="530" as="targetPoint" />
          </mxGeometry>
        </mxCell>
        <mxCell id="g-CExIdlB7c3mvn5GUSl-30" value="" style="edgeStyle=orthogonalEdgeStyle;rounded=0;orthogonalLoop=1;jettySize=auto;html=1;entryX=0.5;entryY=0;entryDx=0;entryDy=0;" edge="1" parent="1" source="g-CExIdlB7c3mvn5GUSl-27" target="15KPPQUU8AicYyvamZOJ-31">
          <mxGeometry relative="1" as="geometry">
            <mxPoint x="1430" y="870" as="targetPoint" />
            <Array as="points">
              <mxPoint x="1450" y="480" />
              <mxPoint x="1450" y="870" />
              <mxPoint x="1300" y="870" />
            </Array>
          </mxGeometry>
        </mxCell>
        <mxCell id="g-CExIdlB7c3mvn5GUSl-27" value="&lt;span&gt;1 &amp;lt; i &amp;lt; 4&lt;/span&gt;" style="rhombus;whiteSpace=wrap;html=1;" vertex="1" parent="1">
          <mxGeometry x="1232.5" y="460" width="130" height="40" as="geometry" />
        </mxCell>
        <mxCell id="g-CExIdlB7c3mvn5GUSl-29" value="да" style="text;html=1;strokeColor=none;fillColor=none;align=center;verticalAlign=middle;whiteSpace=wrap;rounded=0;" vertex="1" parent="1">
          <mxGeometry x="1247.5" y="520" width="60" height="15" as="geometry" />
        </mxCell>
        <mxCell id="g-CExIdlB7c3mvn5GUSl-31" value="нет" style="text;html=1;align=center;verticalAlign=middle;resizable=0;points=[];autosize=1;strokeColor=none;fillColor=none;" vertex="1" parent="1">
          <mxGeometry x="1350" y="460" width="40" height="20" as="geometry" />
        </mxCell>
      </root>
    </mxGraphModel>
  </diagram>
</mxfile>
